<?xml version="1.0" encoding="utf-8"?>
<!-- Generator: Adobe Adobe Illustrator 24.2.0, SVG Export Plug-In . SVG Version: 6.00 Build 0)  -->
<svg version="1.1" id="Ebene_1" xmlns="http://www.w3.org/2000/svg" xmlns:xlink="http://www.w3.org/1999/xlink" x="0px" y="0px"
	 width="852px" height="852px" viewBox="0 0 852 852" style="enable-background:new 0 0 852 852;" xml:space="preserve">
<style type="text/css">
	.st0{fill:#C3C0F5;}
</style>
<g>
	<path class="st0" d="M820.29,0.51c-8.52,3.2-17.3,3.58-26.25,0.14C802.63,0.51,811.34,0.51,820.29,0.51z"/>
	<path class="st0" d="M850.21,24.35c-3.06,1.03-6.13,1.83-9.19,2.63c-0.12-0.24-0.25-0.48-0.37-0.72c3.09-1.86,6.19-3.72,9.42-5.68
		C850.21,21.69,850.21,22.91,850.21,24.35z"/>
	<path class="st0" d="M850.21,529.24c-1.82,0.57-3.62,1.13-5.45,1.29c-1.72,0.15-3.83,0.53-4.38-2.61c3.29,0,6.35,0,9.62-0.01
		C850.21,528.28,850.21,528.66,850.21,529.24z"/>
	<path class="st0" d="M850.21,145.18c-0.38,0.11-0.97,0.09-1.12-0.17c-0.95-1.69-2.06-3.35-2.63-5.18
		c-0.72-2.32,1.47-2.02,2.68-2.61c0.3,0.9,0.55,1.64,0.94,2.48C850.21,141.5,850.21,143.22,850.21,145.18z"/>
	<path class="st0" d="M517.27,292.15c1.8,1.35,3.81,2.37,3.62,4.17c1.11,1.38,1.87,2.29,2.61,3.23c0.36,0.46,0.67,0.96,1.02,1.43
		c2.63,3.47,5.48,6.81,7.83,10.46c1.63,2.55,2.67,5.5,3.8,8.34c1.15,2.87,2.35,5.77,3.07,8.76c0.98,4.12,3.12,7.93,3.21,12.28
		c0.01,0.42,0.5,0.83,0.78,1.23c0.24,0.34,0.74,0.95,0.71,0.97c-2.66,2.37,1.09,4.13,0.6,6.48c-0.5,2.37,0.16,4.97,0.17,7.47
		c0.02,6.35,0,12.7-0.09,19.05c-0.02,1.48-0.84,3.03-0.59,4.42c0.71,3.97-2.27,6.68-3.04,10.1c-0.7,3.1-1.19,6.25-2.03,9.3
		c-0.32,1.17-1.1,2.65-2.09,3.14c-5.14,2.52-8.07,6.94-11.18,11.48c-2.96,4.31-6.35,8.41-11.19,11.11
		c-2.53,1.41-5.34,2.97-6.44,6.12c-0.13,0.38-0.74,0.61-1.15,0.89c-2.87,1.99-5.77,3.93-8.6,5.96c-3.77,2.72-7.78,4.82-12.44,5.54
		c-4.28,0.66-8.53,1.48-12.83,2c-1.42,0.17-2.94-0.35-4.62-0.59c-1.16,3.65-2.2,8.12-3.99,12.25c-1.73,4-4.19,7.69-6.41,11.46
		c-2.46,4.18-4.89,8.38-7.6,12.39c-1.24,1.83-3.1,3.26-4.75,4.81c-2.54,2.39-4.95,4.97-7.75,7c-2.91,2.11-6.09,3.97-9.38,5.41
		c-4.56,1.99-9.33,3.49-14.03,5.17c-0.7,0.25-1.44,0.43-2.17,0.49c-3.34,0.25-6.68,0.46-10.02,0.65c-0.75,0.04-1.52,0.06-2.25-0.08
		c-1.49-0.28-3.04-1.16-4.41-0.92c-3.75,0.66-6.71-1.4-9.98-2.33c-3.41-0.97-6.79-2.01-10.19-3.03c-1.52-0.46-3.01-1.05-4.56-1.36
		c-1.01-0.21-2.11-0.04-2.77-0.04c-0.95-0.74-1.63-1.45-2.45-1.88c-2.16-1.12-4.37-2.17-6.6-3.13c-3.13-1.35-6.31-2.59-9.46-3.89
		c-0.38-0.16-0.76-0.34-1.1-0.57c-3.3-2.21-6.58-4.43-9.87-6.64c-0.28-0.19-0.59-0.34-0.83-0.58c-7.26-7.22-13.67-15.11-16.08-25.27
		c-1.16-4.88-2.28-10.2,1.31-15.09c-0.72-0.12-1.22-0.21-1.84-0.31c0.64-2.05,2.02-2,3.23-1.22c2.07,1.34,3.86,0.95,5.66-0.37
		c2.51-1.83,5.05-3.61,7.48-5.54c1.86-1.48,1.16-4.19-0.99-5.26c-3.85-1.9-7.69-3.87-11.31-6.17c-1.18-0.75-1.63-2.63-2.46-3.96
		c-1.62-2.6-3.26-5.19-4.94-7.76c-0.15-0.23-0.61-0.23-0.9-0.39c-1.2-0.65-2.61-1.11-3.54-2.04c-1.27-1.28-2.58-1.64-4.31-1.56
		c-0.89,0.04-2.48-0.45-2.59-0.94c-0.21-1,0.03-2.75,0.71-3.16c3.32-1.98,6.47-4.93,10.96-2.85c0.93,0.43,2.23,0,3.35,0.08
		c0.52,0.04,1.06,0.26,1.53,0.52c0.86,0.46,1.67,1.01,2.61,1.58c1.12-2.3,0.32-3.75-1.32-4.81c-1.41-0.91-3.13-1.42-4.36-2.5
		c-1.69-1.48-3.04-3.34-4.54-5.04c0.18-0.22,0.35-0.43,0.53-0.65c0.51,0.22,1.01,0.44,1.62,0.71c-0.39-2.3-0.55-4.58-1.18-6.73
		c-0.95-3.2-0.53-6.09,1.12-8.9c0.38-0.65,0.89-1.32,1-2.03c0.69-4.42,3.63-6.95,7.16-9.17c0.84-0.53,1.28-1.86,1.66-2.91
		c0.91-2.51,3.02-3.06,5.23-3.93c3.38-1.33,6.94-2.76,9.69-5.03c3.82-3.16,7.13-7.04,8.24-12.19c0.31-1.44,0.4-2.94,0.58-4.29
		c1.34,0.5,2.4,0.94,3.48,1.3c2.13,0.7,4.33,1.06,4.77,4.04c0.14,0.98,1.81,1.73,2.83,2.62c0.22,1.96,0.56,4.2,0.72,6.45
		c0.25,3.6-1.63,6.41-3.9,8.85c-3.59,3.86-8.48,5.52-13.25,7.39c-4.69,1.84-7.94,5.37-10.27,9.77c-1.27,2.4-1.62,4.76-1.49,7.67
		c0.16,3.73,1.4,6.05,3.82,8.66c3.13,3.38,5.72,7.33,8.09,11.3c0.76,1.28,0.12,3.42,0.02,5.17c-0.13,2.26-0.12,4.24,2.26,5.7
		c1.36,0.83,2.17,1.67,3.74,0.51c0.5-0.37,1.66-0.13,2.39,0.15c2.2,0.83,4.54,1.55,6.45,2.85c1.41,0.96,2.9,2.66,3.19,4.24
		c0.53,2.98,0.33,6.12,0.23,9.19c-0.07,2.29-0.58,4.56-0.64,6.84c-0.01,0.57,0.97,1.17,1.63,1.92c-0.89,0.64-2.68,1.26-0.61,2.63
		c-2.49,1.45-3.54,3.39-3.72,6.16c-0.12,1.74-0.89,3.66-1.95,5.06c-1.3,1.73-3.19,3.01-4.84,4.47c-1.46,1.3-3.72,1.86-3.78,4.43
		c-0.01,0.38-0.93,0.74-1.91,1.47c0.23-1.27,0.59-2,0.39-2.49c-0.22-0.54-0.94-1.11-1.5-1.19c-0.53-0.08-1.3,0.34-1.69,0.79
		c-0.34,0.39-0.54,1.21-0.37,1.67c1.17,3.12,2.29,6.23,4.64,8.81c1.04,1.15,1.28,2.94,2.96,3.74c3.77,1.8,7.49,3.72,11.21,5.64
		c1.78,0.92,3.51,1.95,5.26,2.94c0.29,0.16,0.53,0.48,0.83,0.56c2.28,0.57,4.7,0.81,6.83,1.72c1.72,0.73,3.08,1.59,5.21,1.45
		c4.19-0.29,8.46,0.45,12.65,0.13c2.61-0.2,5.14-1.53,7.69-2.39c4.22-1.42,8.56-2.58,12.6-4.42c2.87-1.3,5.34-3.51,7.97-5.35
		c4.96-3.47,7.81-8.81,11.61-13.3c1.03-1.22,1.13-3.18,1.87-4.71c0.69-1.45,1.77-2.71,2.47-4.16c0.85-1.75,1.62-3.57,2.18-5.44
		c0.49-1.63,0.22-2.69-2.1-2.51c-3.47,0.27-6.97,0.06-10.45,0.04c-0.41,0-0.89-0.02-1.23-0.21c-2.31-1.32-4.6-2.66-6.86-4.06
		c-1.49-0.93-2.91-1.96-4.36-2.95c-0.27-0.19-0.53-0.54-0.82-0.56c-3.13-0.21-5.59-1.71-7.79-3.85c-1.16-1.14-2.19-0.99-3.78-0.11
		c-3.35,1.87-7,3.27-10.62,4.61c-1.74,0.65-3.69,0.91-5.56,1c-0.97,0.05-1.97-0.7-2.97-1.01c-0.69-0.21-1.47-0.51-2.12-0.36
		c-2.48,0.57-4.66,0.03-7.05-1.48c0.56-0.74,0.94-1.52,1.55-1.98c4.12-3.11,8.32-6.12,12.44-9.23c0.59-0.45,0.89-1.27,1.32-1.93
		c-0.2-0.2-0.4-0.39-0.59-0.59c0.89-0.38,1.78-0.76,2.98-1.27c-2.35-2.06-4.85-3.12-7.63-3.32c-1.96-0.14-3.23-0.99-4.46-2.47
		c-1.65-1.98-3.6-3.71-5.5-5.46c-1.26-1.17-1.6-2.26-0.15-3.25c-0.92-0.08-1.8-0.17-2.67-0.25c0.52-1.59,0.96-3.22,1.58-4.77
		c0.37-0.9,1.03-1.68,1.56-2.52c-0.29,0.04-0.59,0.07-0.88,0.11c-1.03-1.23-2.67-2.32-2.99-3.71c-1.66-7.13-2.84-14.38-4.5-21.51
		c-0.69-2.94,0.09-5.94-0.58-8.67c-0.86-3.52-1.14-7.05-1.33-10.57c-0.2-3.73-0.14-7.55,0.45-11.22c0.67-4.22,1.84-8.39,3.18-12.46
		c1.29-3.91,3.05-7.67,4.65-11.47c1.02-2.41,0.36-3.77-2.19-3.93c-5.32-0.32-10.51,0.42-15.37,2.7c-3.89,1.82-7.68,3.86-11.51,5.8
		c-0.08,0.04-0.17,0.07-0.22,0.13c-2.77,3.91-7.88,4.82-10.87,8.43c-1.7,2.06-3.38,4.14-4.89,6.34c-0.33,0.48,0.1,1.48,0.19,2.39
		c-0.65-0.16-1.5-0.33-2.33-0.6c-1.44-0.48-2.36-0.33-2.22,1.51c0.03,0.39-0.17,1.12-0.33,1.15c-3.39,0.44-2.13,4-3.84,5.67
		c-1.73,1.69-2.93,3.92-4.35,5.91c-0.15,0.21-0.23,0.58-0.41,0.63c-3.32,0.88-3.02,3.92-4.02,6.31c-1.53,3.64-3.55,7.07-5.42,10.55
		c-0.21,0.39-0.74,0.7-1.19,0.86c-1.67,0.59-2.46,1.28-1.27,3.18c0.27,0.43-1.04,1.83-2.02,2.56c0,1.02,0.4,2.32-0.07,3.03
		c-2.57,3.89-2.38,8.51-3.56,12.75c-1.32,4.72-2.43,9.57-2.93,14.43c-0.46,4.51-0.16,9.13,0.12,13.68
		c0.26,4.25,1.12,8.39,3.13,12.27c2.25,4.33,4.37,8.75,6.21,13.26c0.5,1.24,0.09,3.07-0.41,4.45c-0.59,1.61-1.95,0.95-3.26,0.64
		c-0.7-0.16-2.04,0.47-2.38,1.12c-1.26,2.42-2.92,2.29-5.11,1.49c-5.18-1.88-8.89-5.22-11.39-10.15c-1.82-3.59-4.46-6.8-5.99-10.49
		c-1.88-4.54-4.35-8.8-5.35-13.83c-0.75-3.81-1.49-7.62-2.08-11.46c-0.74-4.82,0.37-9.67-0.25-14.5c-0.04-0.33,0.28-0.71,0.45-1.05
		c0.73-1.5,1.39-2.82,0.48-4.7c-0.43-0.88,0.55-2.61,1.18-3.8c0.76-1.43,1.74-2.49,1.37-4.49c-0.31-1.66,0.6-3.59,1.09-5.36
		c0.85-3.01,1.57-6.1,2.78-8.96c1.14-2.68,3-5.04,4.28-7.68c2.33-4.81,4.38-9.76,6.72-14.57c0.62-1.27,1.9-2.21,2.84-3.34
		c0.49-0.59,1.07-1.18,1.32-1.87c1.21-3.44,3.57-6.04,6.07-8.55c0.17-0.17,0.34-0.47,0.31-0.69c-0.33-2.77,1.93-4.16,3.25-6.03
		c0.24-0.33,0.9-0.33,1.25-0.62c0.46-0.37,1.23-1.03,1.13-1.32c-1-2.94,1.39-3.82,3.02-5.13c0.52-0.42,1.56-0.51,1.72-0.98
		c0.98-2.81,2.96-2.5,5.16-1.95c0.95,0.24,1.93,0.53,2.3-1.11c0.14-0.6,1.65-1.25,2.53-1.25c2.42,0,4.83,0.52,7.24,0.47
		c1.29-0.03,2.9-0.46,3.8-1.31c3.5-3.28,8.3-2.28,12.23-4.04c1.95-0.87,3.91-1.85,5.97-2.27c3.25-0.66,6.58-0.89,9.87-1.29
		c3.45-0.42,6.9-0.9,10.37-1.23c1.58-0.15,3.2,0.12,4.79,0c1.81-0.13,3.6-0.53,5.4-0.71c0.71-0.07,1.45,0.09,2.17,0.22
		c1.23,0.22,2.45,0.58,3.69,0.73c1.77,0.22,1.45-1.47,2.05-2.35c0.36-0.53,1.14-0.75,1.57-1.25c2.29-2.68,4.53-5.41,7.14-8.55
		c3.95,0.02,8.06-2.62,7.71-5.21c3.34-1.97,6.49-4.08,9.86-5.74c4.12-2.01,8.42-3.63,12.64-5.44c0.45-0.19,0.84-0.55,1.29-0.75
		c1.9-0.87,3.76-1.93,5.75-2.5c2-0.58,3.91-0.92,5.84-2.06c1.87-1.11,4.59-0.88,6.95-1.05c3.2-0.22,6.42-0.3,9.63-0.37
		c5.56-0.12,11.1-0.55,16.55,1.54c2.56,0.98,5.56,0.72,8.33,1.23c1.19,0.22,2.27,0.99,3.41,1.48c3.9,1.69,7.79,3.4,11.71,5.04
		c1.23,0.51,2.59,0.73,3.81,1.27c1.16,0.52,2.24,1.24,3.31,1.94c1.55,1.02,3.01,2.18,4.59,3.15c2.08,1.28,4.38,2.25,6.32,3.71
		c1.07,0.81,1.49,2.43,2.42,3.5C514.86,290.36,516.04,291.16,517.27,292.15z"/>
	<path class="st0" d="M352.49,540.98c3.26,5.46,6.29,10.85,9.64,16.04c2.23,3.46,4.79,6.74,7.39,9.93
		c4.46,5.47,9.18,10.73,13.58,16.24c1.99,2.49,3.49,5.36,5.17,8.08c0.29,0.47,0.38,1.09,0.5,1.65c0.64,2.92,1.07,5.9,1.97,8.74
		c0.42,1.31,0.5,2.16-0.38,3.2c-1.03,1.23-1.82,2.67-2.89,3.86c-0.4,0.45-1.52,0.84-1.92,0.6c-2.56-1.56-5.01-3.3-7.49-4.99
		c-0.2-0.14-0.29-0.47-0.5-0.57c-5.72-2.97-9.22-8.31-13.41-12.85c-5.09-5.51-9.52-11.66-14.77-17.01
		c-5.79-5.9-9.48-13.27-14.74-19.52c-1.86-2.21-2.86-5.13-4.28-7.71c-0.32-0.58-0.62-1.3-1.13-1.63c-3.85-2.42-5.3-6.65-7.67-10.16
		c-2.04-3.03-3.73-6.29-5.71-9.35c-1.19-1.84-2.35-3.91-4.05-5.17c-4.28-3.17-8.59-6.21-13.91-7.86c-4.83-1.5-9.3-4.22-13.82-6.6
		c-3.66-1.92-7.56-3.68-10.66-6.31c-3.44-2.92-6.26-6.64-9.03-10.25c-1.29-1.68-1.62-4.07-2.77-5.91
		c-4.07-6.52-5.69-13.72-6.26-21.24c-0.01-0.17,0.1-0.42,0.02-0.5c-2.94-2.84,0.51-6.54-1.28-9.55c-0.35-0.59-0.48-1.31-0.91-2.54
		c1.71,0,3.68,0.59,4.63-0.15c1.19-0.93,1.79-2.46,3.74-2.36c1.07,0.05,2.23-0.19,3.22-0.62c2.1-0.91,3.12-0.32,3.03,2.23
		c4.63-0.87,5.62,3.22,7.94,5.45c0.36,0.34,0.39,1.11,0.43,1.7c0.3,5.06,0.58,10.12,0.86,15.18c0,0.08-0.05,0.19-0.01,0.25
		c4.41,7.44,6.05,16.41,12.69,22.63c5.66,5.3,12.37,8.49,19.71,10.63c2.35,0.69,4.62,1.64,6.91,2.51c3.23,1.22,6.43,2.51,9.66,3.72
		c6.21,2.32,10.45,7.09,14.68,11.85c1.96,2.21,4.1,4.33,5.65,6.81C348.57,533.06,350.38,537,352.49,540.98z"/>
	<path class="st0" d="M418.87,524.43c-6.13,2.6-12.15,5.02-18.03,7.72c-6.06,2.78-12.62,3.09-19.02,4.07
		c-4.1,0.63-8.28,0.83-12.43,0.99c-1.65,0.06-3.6,0.09-4.07-2.39c-0.09-0.49-1.28-0.98-2.03-1.1c-2.32-0.37-4.7-0.4-6.98-0.89
		c-0.88-0.19-1.56-1.27-2.33-1.95c0.78-0.65,1.47-1.63,2.37-1.9c5.12-1.56,10.28-2.97,15.44-4.37c1.39-0.38,2.82-0.61,4.26-0.77
		c6.58-0.74,13.24-1.04,19.72-2.27c3.54-0.67,6.81-2.84,10.18-4.39c2.36-1.08,4.63-2.34,7.02-3.35c2.57-1.09,5.25-1.92,7.83-2.97
		c3.45-1.4,6.87-2.91,10.29-4.38c0.31-0.13,0.69-0.25,0.88-0.49c3.2-4.06,7.91-4.16,12.4-4.66c2.84-0.31,4.9,2.88,3.82,5.48
		c-0.37,0.88-0.37,1.92-0.56,3c-0.9,0.99-1.88,2.3-3.1,3.34c-1.06,0.91-2.33,1.65-3.61,2.21c-5.51,2.4-11.05,4.72-16.6,7.03
		C422.57,523.1,420.8,523.71,418.87,524.43z"/>
	<path class="st0" d="M419.96,546.87c3.02-2.13,6.13-3.93,8.59-6.39c2.74-2.74,5.27-5.44,9.29-6.16c4.21-0.75,8.39-1.65,12.5-2.47
		c0.43,1.39,0.7,2.08,0.85,2.79c0.21,1.01,0.82,2.37,0.4,2.99c-2.14,3.12-4.63,6.01-6.86,9.07c-0.85,1.16-1.25,2.65-2.08,3.84
		c-0.58,0.83-1.78,2.12-2.27,1.95c-2.9-1.01-4.72,1.32-7.06,1.95c-4.01,1.08-7.99,2.27-11.99,3.38c-0.25,0.07-0.58-0.26-0.9-0.33
		c-1.48-0.34-2.96-0.66-4.44-0.99c-0.12,0.26-0.23,0.52-0.35,0.78c-0.21-0.68-0.42-1.36-0.63-2.03c-4.62-0.12-7.66-2.86-6.1-5.63
		c2.11,1.65,3.99,2.42,6.12-0.31C416.04,548.05,418.16,547.68,419.96,546.87z"/>
	<path class="st0" d="M625.07,349.87c0.53,3.74-1.73,5.81-3.94,8c-2.37,2.34-4.75,4.72-6.77,7.36c-2.61,3.41-4.86,7.11-7.32,10.64
		c-0.31,0.44-0.94,0.66-1.42,0.98c-0.23-0.57-0.46-1.14-0.73-1.84c-0.71,0.57-1.63,1.32-2.56,2.08c-0.11-0.09-0.23-0.18-0.34-0.28
		c1.54-2.21,3.02-4.47,4.64-6.63c3.55-4.76,7.15-9.48,10.77-14.19c1.04-1.36,2.82-2.46,3.19-3.95c0.48-1.93-0.19-4.12-0.2-6.21
		c-0.02-1.97,0.09-3.95,0.27-5.92c0.23-2.49,0.58-4.98,0.87-7.39C623.76,333.64,624.77,338.27,625.07,349.87z"/>
	<path class="st0" d="M550.45,239.42c-0.07,2.57-0.45,4.98-0.12,7.3c0.27,1.92,1.25,3.79,2.21,5.52c0.28,0.51,1.99,0.89,2.35,0.56
		c2.11-1.91,5.4-2.35,6.64-5.34c0.35-0.84,0.96-1.57,1.76-2.1c0.81,2.6-2.44,5.49,1.75,6.99c-1.64,2.34-2.5,4.85-5.66,5.63
		c-1.6,0.39-2.76,2.37-4.3,3.33c-0.92,0.58-2.76,1.16-3.19,0.74c-1.16-1.14-2.79-3.15-2.44-4.23c0.93-2.86-0.25-5.11-1.11-7.45
		c-1.29-3.5-0.72-10.57,1.61-13.45C550.15,237.84,550.3,238.53,550.45,239.42z"/>
	<path class="st0" d="M577.44,233.09c1.57-0.51,3.11-0.82,4.65-1.12c0.05,0.22,0.1,0.45,0.15,0.67c0.54-0.9,1.09-1.81,1.63-2.71
		c0.26,0.1,0.53,0.2,0.79,0.3c-0.48,1.28-0.95,2.57-1.51,4.08c1.58,1.04,2.01,2.96,0.07,3.69c-1.22,0.46-3.32-0.77-4.71-1.7
		C577.78,235.81,577.74,234.32,577.44,233.09z"/>
	<path class="st0" d="M569.75,319.67c-0.37-0.64-0.66-1.12-0.96-1.62c3.53-1.51,7.08,1.08,6.71,4.78c-0.04,0.36-0.39,0.99-0.54,0.97
		c-0.63-0.07-1.37-0.18-1.81-0.58C571.96,322.17,570.92,320.97,569.75,319.67z"/>
	<path class="st0" d="M550.06,505.18c0.84,2.14,1.57,4.12,2.31,6.1c-0.33,0.13-0.67,0.26-1,0.4c-0.31-0.74-0.66-1.46-0.91-2.22
		c-0.8-2.45-1.56-4.82-4.54-5.58c-1.63-0.42-1.83-1.73-1.19-3.33C547.44,501.03,548.69,503.04,550.06,505.18z"/>
	<path class="st0" d="M512.09,502.38c-0.41-1.28-0.72-2.49-0.98-3.71c-0.64-2.91,2.2-2.56,3.55-4.15
		C515.23,497.92,513.7,500.18,512.09,502.38z"/>
	<path class="st0" d="M569.34,235.84c-0.27,1.57-0.53,2.92-0.79,4.27c-0.37-0.07-0.73-0.13-1.1-0.2c0.06-0.95,0.25-1.92,0.14-2.85
		c-0.19-1.59-0.57-3.15-0.85-4.73c-0.08-0.46-0.31-1.22-0.13-1.35c0.51-0.35,1.22-0.64,1.81-0.57c0.4,0.05,1,0.72,1.02,1.15
		C569.55,232.9,569.4,234.27,569.34,235.84z"/>
	<path class="st0" d="M474.59,211.77c0.68,3.14,1.29,6.11,1.89,9.09c-3.72-2.97-2.07-7.15-3.01-10.8
		C473.82,210.57,474.17,211.09,474.59,211.77z"/>
	<path class="st0" d="M839.78,61.8c0.6-0.43,1.11-0.71,1.63-0.99c0.11,0.86,0.47,1.78,0.26,2.55c-0.14,0.51-1.09,0.81-1.67,1.2
		c-0.19-0.63-0.41-1.26-0.54-1.9C839.41,62.45,839.61,62.2,839.78,61.8z"/>
	<path class="st0" d="M525.4,602.61c-0.94,0.57-1.88,0.98-2.81,1.38c0.1-0.74-0.05-1.7,0.35-2.17
		C523.97,600.64,524.85,601.19,525.4,602.61z"/>
	<path class="st0" d="M628.64,448.28c-2.33-0.62-1.32-2.07-0.93-3.63C629.53,445.57,629.24,446.82,628.64,448.28z"/>
</g>
</svg>
