<?xml version="1.0" encoding="utf-8"?>
<!-- Generator: Adobe Adobe Illustrator 24.2.0, SVG Export Plug-In . SVG Version: 6.00 Build 0)  -->
<svg version="1.1" id="Ebene_1" xmlns="http://www.w3.org/2000/svg" xmlns:xlink="http://www.w3.org/1999/xlink" x="0px" y="0px"
	 width="852px" height="852px" viewBox="0 0 852 852" style="enable-background:new 0 0 852 852;" xml:space="preserve">
<style type="text/css">
	.st0{fill:#C91C45;}
</style>
<g>
	<path class="st0" d="M820.29,0.51c-8.52,3.2-17.3,3.58-26.25,0.14C802.63,0.51,811.34,0.51,820.29,0.51z"/>
	<path class="st0" d="M850.21,24.35c-3.06,1.03-6.13,1.83-9.19,2.63c-0.12-0.24-0.25-0.48-0.37-0.72c3.09-1.86,6.19-3.72,9.42-5.68
		C850.21,21.69,850.21,22.91,850.21,24.35z"/>
	<path class="st0" d="M850.21,529.24c-1.82,0.57-3.62,1.13-5.45,1.29c-1.72,0.15-3.83,0.53-4.38-2.61c3.29,0,6.35,0,9.62-0.01
		C850.21,528.28,850.21,528.66,850.21,529.24z"/>
	<path class="st0" d="M850.21,145.18c-0.38,0.11-0.97,0.09-1.12-0.17c-0.95-1.69-2.06-3.35-2.63-5.18
		c-0.72-2.32,1.47-2.02,2.68-2.61c0.3,0.9,0.55,1.64,0.94,2.48C850.21,141.5,850.21,143.22,850.21,145.18z"/>
	<path class="st0" d="M352.94,303.22c5.2-0.69,10.17-1.36,15.14-1.97c0.92-0.11,1.87,0.08,2.8,0.01c2.13-0.15,4.26-0.42,6.39-0.52
		c0.78-0.04,1.63,0.15,2.36,0.44c2.76,1.1,3.98,0.72,5.41-1.63c0.37-0.61,1.22-0.9,1.7-1.46c2.28-2.69,4.52-5.42,7.08-8.53
		c3.93,0.09,8.07-2.58,7.74-5.23c3.29-1.93,6.37-3.99,9.68-5.61c4.11-2.02,8.41-3.68,12.62-5.51c0.53-0.23,1-0.58,1.52-0.82
		c1.83-0.84,3.6-1.91,5.51-2.43c2.09-0.57,4.07-0.95,6.08-2.12c1.95-1.13,4.77-0.86,7.21-1.02c3.29-0.22,6.59-0.28,9.88-0.38
		c5.32-0.16,10.61-0.48,15.78,1.53c2.28,0.89,4.9,0.87,7.33,1.42c2.23,0.51,4.48,1.08,6.61,1.89c4.82,1.85,9.64,3.71,14.31,5.89
		c2.31,1.08,4.26,2.9,6.41,4.33c2.03,1.35,4.13,2.61,6.16,3.96c0.66,0.44,1.41,0.92,1.79,1.57c1.29,2.2,2.45,4.29,5.1,5.39
		c1.73,0.72,3.58,2.1,3.28,3.86c1.12,1.36,1.89,2.27,2.63,3.2c0.36,0.46,0.65,0.98,1.01,1.44c2.63,3.47,5.49,6.8,7.84,10.45
		c1.64,2.54,2.67,5.5,3.81,8.34c1.15,2.87,2.34,5.77,3.07,8.76c1,4.11,3.14,7.92,3.22,12.28c0.01,0.42,0.48,0.83,0.75,1.25
		c0.27,0.42,0.83,1.17,0.79,1.2c-3.03,2.48,1.15,4.47,0.44,7.25c-0.95,3.74,0.22,7.98,0.3,12.01c0.1,4.92,0.51,9.92-0.18,14.75
		c-0.48,3.38,0.07,7.04-2.33,10.26c-1.38,1.86-1.59,4.71-1.96,7.17c-0.58,3.9-1.01,7.52-5.34,9.52c-4.21,1.95-6.37,6.1-8.97,9.81
		c-3.17,4.52-6.62,8.82-11.67,11.68c-2.42,1.37-5.22,2.87-6.23,5.98c-0.13,0.39-0.73,0.63-1.13,0.91c-2.87,1.99-5.78,3.91-8.61,5.96
		c-3.77,2.73-7.78,4.83-12.44,5.55c-4.28,0.66-8.53,1.48-12.83,2.01c-1.43,0.17-2.94-0.36-4.64-0.61c-1.16,3.65-2.2,8.11-3.99,12.24
		c-1.73,4-4.18,7.69-6.41,11.47c-2.46,4.18-4.89,8.38-7.6,12.39c-1.24,1.84-3.1,3.27-4.74,4.81c-2.54,2.39-4.95,4.96-7.75,7
		c-2.91,2.11-6.08,3.98-9.38,5.42c-4.56,1.99-9.34,3.49-14.03,5.17c-0.7,0.25-1.44,0.44-2.17,0.5c-3.34,0.25-6.68,0.46-10.02,0.65
		c-0.75,0.04-1.52,0.06-2.25-0.07c-1.49-0.28-3.04-1.16-4.41-0.92c-3.75,0.66-6.71-1.4-9.99-2.33c-3.41-0.97-6.79-2.01-10.19-3.03
		c-1.52-0.46-3.01-1.04-4.56-1.36c-1.01-0.21-2.11-0.04-2.73-0.04c-1.08-0.79-1.84-1.5-2.74-1.97c-2.01-1.05-4.07-2-6.13-2.94
		c-0.75-0.34-1.57-0.57-2.36-0.8c-0.73-0.22-1.57-0.23-2.2-0.6c-2.94-1.72-5.85-3.52-8.74-5.33c-1.79-1.12-3.57-2.26-5.29-3.48
		c-1.71-1.21-3.63-2.28-4.97-3.83c-3.22-3.74-6.45-7.54-9.14-11.67c-4.09-6.28-6.21-13.3-5.71-20.88c0.12-1.86,1.09-3.67,1.71-5.63
		c-0.3-0.05-0.79-0.14-1.41-0.24c0.63-2.05,2.02-2,3.23-1.22c2.07,1.33,3.86,0.95,5.66-0.36c2.51-1.83,5.05-3.62,7.48-5.55
		c1.86-1.48,1.16-4.19-0.99-5.26c-3.85-1.9-7.69-3.87-11.31-6.17c-1.18-0.75-1.63-2.63-2.46-3.96c-1.62-2.6-3.26-5.19-4.94-7.76
		c-0.15-0.23-0.61-0.23-0.9-0.39c-1.2-0.65-2.61-1.11-3.54-2.04c-1.27-1.28-2.58-1.64-4.31-1.56c-0.89,0.04-2.48-0.45-2.59-0.94
		c-0.21-1,0.03-2.75,0.71-3.16c3.32-1.99,6.47-4.93,10.96-2.85c0.93,0.43,2.23,0,3.35,0.08c0.52,0.04,1.06,0.27,1.53,0.52
		c0.86,0.46,1.67,1,2.6,1.58c1.12-2.3,0.32-3.75-1.33-4.81c-1.41-0.91-3.13-1.42-4.36-2.5c-1.69-1.48-3.04-3.34-4.54-5.04
		c0.18-0.22,0.35-0.43,0.53-0.65c0.51,0.23,1.01,0.45,1.74,0.78c-0.53-2.52-1.01-4.89-1.53-7.25c-0.64-2.91-0.27-5.67,1.15-8.29
		c0.4-0.73,1.06-1.42,1.18-2.19c0.7-4.42,3.65-6.94,7.17-9.17c0.84-0.53,1.28-1.86,1.65-2.92c0.9-2.52,3.03-3.05,5.24-3.92
		c3.38-1.34,6.94-2.76,9.69-5.04c3.82-3.16,7.12-7.05,8.24-12.19c0.31-1.44,0.4-2.94,0.58-4.36c1.26,0.53,2.22,1.02,3.23,1.33
		c2.23,0.68,4.54,0.98,5.01,4.1c0.14,0.98,1.83,1.73,2.82,2.59c0.23,1.99,0.57,4.23,0.72,6.48c0.24,3.6-1.66,6.4-3.92,8.84
		c-3.58,3.87-8.49,5.51-13.26,7.38c-4.69,1.84-7.93,5.38-10.26,9.79c-1.28,2.41-1.55,4.79-1.49,7.67c0.09,3.79,1.45,6.05,3.84,8.66
		c3.12,3.39,5.72,7.33,8.08,11.31c0.76,1.28,0.12,3.43,0.01,5.17c-0.14,2.27-0.13,4.28,2.29,5.68c1.24,0.72,1.97,1.67,3.53,0.65
		c0.61-0.4,1.81-0.26,2.6,0.03c2.21,0.8,4.54,1.53,6.45,2.84c1.41,0.96,2.89,2.67,3.17,4.26c0.53,2.98,0.31,6.12,0.22,9.19
		c-0.07,2.2-0.57,4.39-0.6,6.59c-0.01,0.68,0.9,1.37,1.52,2.25c-0.57,0.61-3.11,1.04-0.5,2.47c-2.48,1.55-3.61,3.44-3.76,6.24
		c-0.09,1.73-0.91,3.65-1.97,5.06c-1.3,1.72-3.18,3.02-4.85,4.46c-1.48,1.28-3.66,1.92-3.77,4.45c-0.02,0.38-0.92,0.71-1.57,1.18
		c-0.08-1.14,0.07-2.01-0.26-2.63c-0.24-0.46-1.16-0.85-1.7-0.77c-0.53,0.08-1.08,0.72-1.4,1.25c-0.24,0.39-0.31,1.09-0.12,1.49
		c1.41,2.91,2.17,6.15,4.68,8.51c1.07,1.01,1,2.82,2.75,3.61c3.88,1.75,7.63,3.8,11.4,5.78c1.78,0.93,3.5,1.97,5.25,2.96
		c0.44,0.25,0.86,0.59,1.33,0.7c2.2,0.53,4.72,0.51,6.55,1.63c1.69,1.04,3.04,1.43,5,1.35c4.21-0.16,8.46,0.46,12.65,0.16
		c2.53-0.18,4.99-1.45,7.46-2.29c4.3-1.45,8.72-2.66,12.83-4.53c2.87-1.31,5.32-3.55,7.96-5.38c0.14-0.09,0.2-0.29,0.33-0.38
		c4.9-3.19,7.38-8.51,11.12-12.72c1.07-1.2,1.29-3.14,2.04-4.67c0.73-1.5,1.74-2.88,2.46-4.39c0.81-1.68,1.52-3.42,2.11-5.2
		c0.71-2.14,0.1-2.72-2.1-2.67c-3.48,0.09-6.97,0.01-10.46-0.01c-0.41,0-0.88-0.04-1.23-0.24c-2.38-1.36-4.76-2.73-7.1-4.16
		c-1.36-0.83-2.63-1.79-3.96-2.66c-0.47-0.31-0.97-0.68-1.5-0.78c-2.38-0.45-4.49-1.17-6.23-3.1c-1.37-1.52-2.92-2.11-5.27-0.53
		c-2.95,1.97-6.51,3.1-9.91,4.29c-2,0.7-4.19,0.93-6.31,1.17c-0.67,0.08-1.4-0.54-2.13-0.79c-0.81-0.28-1.71-0.82-2.46-0.68
		c-2.49,0.48-4.67,0.02-6.95-1.51c0.49-0.69,0.79-1.44,1.34-1.85c4.05-3.06,8.18-6.03,12.22-9.11c0.79-0.6,2.53-1.02,1.12-2.79
		c0.87-0.36,1.71-0.7,2.89-1.19c-2.11-2.2-4.66-3.14-7.36-3.37c-2.17-0.19-3.51-1.13-4.84-2.75c-1.63-1.99-3.59-3.73-5.5-5.46
		c-1.27-1.15-1.28-2.09,0.02-3.31c-0.72,0.22-1.44,0.44-2.31,0.71c-1.24-3.43,2.2-5.38,2.6-8.18c-0.26,0.11-0.51,0.22-0.77,0.33
		c-0.98-1.16-2.49-2.18-2.85-3.51c-1.45-5.3-2.56-10.7-3.76-16.07c-0.61-2.71-1.24-5.42-1.69-8.15c-0.15-0.94,0.37-1.97,0.29-2.94
		c-0.39-4.53-1.07-9.05-1.28-13.59c-0.17-3.73-0.18-7.54,0.4-11.22c0.68-4.3,1.86-8.56,3.21-12.71c1.28-3.91,3.05-7.67,4.65-11.47
		c1-2.37,0.3-3.72-2.28-3.87c-5.24-0.32-10.35,0.45-15.13,2.62c-3.99,1.81-7.83,3.94-11.74,5.92c-0.08,0.04-0.17,0.07-0.22,0.13
		c-2.75,4.08-8.05,4.88-11.06,8.61c-1.62,2.01-3.25,4.04-4.68,6.18c-0.32,0.48,0.17,1.49,0.31,2.37c-0.92-0.24-1.94-0.54-2.98-0.76
		c-0.38-0.08-0.8,0.02-1.2,0.04c0.76,2.92-3.86,2.84-3.22,5.8c0.12,0.56-0.55,1.42-1.06,1.96c-2.59,2.8-3.88,6.72-7.55,8.63
		c-0.53,0.27-0.66,1.32-0.96,2.01c-1.41,3.29-2.57,6.71-4.29,9.83c-1.06,1.92-1.43,4.69-4.36,5.19c-0.19,0.03-0.5,1.07-0.33,1.28
		c1.86,2.27-0.14,2.88-1.27,3.43c-0.16,1.46,0.07,2.79-0.47,3.6c-2.42,3.59-2.3,7.84-3.22,11.78c-1.45,6.17-2.63,12.43-3.49,18.72
		c-0.73,5.4,0.26,10.74,1.46,16.06c0.73,3.25,1.98,6.06,3.78,8.82c1.18,1.82,1.49,4.18,2.33,6.25c0.57,1.4,1.24,2.81,2.12,4.03
		c1.32,1.81,0.71,3.37-0.28,4.96c-0.93,1.49-2.09,0.77-3.36,0.51c-0.7-0.14-1.99,0.56-2.35,1.23c-1.22,2.28-2.83,2.14-4.93,1.5
		c-7.18-2.19-10.51-8.03-13.69-14.08c-1.13-2.15-3.15-4.11-3.46-6.33c-0.41-2.95-3.36-4.2-3.5-7.43c-0.14-3.15-2.38-6.15-3.15-9.35
		c-0.76-3.14-0.77-6.45-1.2-9.68c-0.57-4.27,0.07-8.51,0.11-12.77c0.01-0.79,0.47-1.57,0.53-2.38c0.1-1.35-0.08-2.73,0.1-4.06
		c0.18-1.33,0.41-2.77,1.08-3.88c0.9-1.49,1.82-2.63,1.48-4.7c-0.27-1.69,0.6-3.59,1.1-5.36c0.82-2.93,1.49-5.95,2.72-8.72
		c1.28-2.9,3.31-5.45,4.71-8.31c2.24-4.59,4.08-9.37,6.38-13.92c0.98-1.94,3.03-3.34,3.98-5.29c1.61-3.3,3.74-6.14,6.27-8.74
		c0.22-0.23,0.48-0.67,0.41-0.91c-0.89-3,2.35-3.75,3.17-5.81c0.12-0.3,0.95-0.25,1.29-0.55c0.44-0.38,1.14-1.17,1.02-1.38
		c-1.02-1.8,0.37-2.76,1.3-3.72c1.48-1.54,3.04-3.09,4.82-4.23c0.82-0.52,2.25-0.14,3.4-0.07c1.11,0.06,2.29,0.8,2.75-1.15
		c0.14-0.58,1.69-1.15,2.59-1.14c2.42,0.01,4.84,0.52,7.25,0.45c1.29-0.03,2.88-0.5,3.79-1.36c3.5-3.3,8.33-2.19,12.23-4.02
		c1.4-0.65,2.77-1.49,4.25-1.82C347.64,303.85,350.19,303.63,352.94,303.22z"/>
	<path class="st0" d="M265.3,490.52c-0.94-1.86-1.55-3.73-2.61-5.3c-4.82-7.11-6.46-15.09-7.58-23.46c-0.35-2.62-0.67-5.07-0.51-7.7
		c0.08-1.25-0.78-2.56-1.22-3.87c0.08-0.11,0.2-0.37,0.28-0.36c4.27,0.55,7.04-3.51,11.29-3.58c2.09-0.03,2.82,0.17,2.86,2.35
		c4.49-0.77,5.54,3.25,7.88,5.46c0.36,0.34,0.42,1.11,0.45,1.69c0.31,5.06,0.59,10.12,0.87,15.18c0.01,0.25-0.02,0.55,0.11,0.73
		c3.51,4.68,4.19,10.69,7.4,15.55c3.28,4.97,7.03,9.44,12.45,11.98c4.88,2.29,10.04,3.98,15.07,5.96c5.19,2.04,10.46,3.9,15.52,6.23
		c5.42,2.5,9.4,6.87,13.2,11.36c2.01,2.39,4.28,4.63,5.91,7.26c2.63,4.23,4.75,8.78,7.24,13.1c3.38,5.85,6.74,11.72,10.44,17.35
		c2.31,3.51,5.2,6.65,7.91,9.89c3.55,4.25,7.3,8.34,10.72,12.69c2.02,2.57,3.59,5.5,5.33,8.28c0.25,0.41,0.36,0.93,0.46,1.41
		c0.69,3.08,1.41,6.15,2,9.24c0.15,0.79,0.14,1.81-0.24,2.48c-0.88,1.54-1.96,2.97-3.1,4.33c-0.35,0.42-1.38,0.8-1.73,0.59
		c-2.57-1.55-5.06-3.24-7.55-4.92c-0.27-0.18-0.38-0.63-0.65-0.77c-5.51-2.82-8.64-8.15-12.95-12.24
		c-5.67-5.38-10.13-11.8-15.28-17.59c-4.69-5.27-8.35-11.16-12.4-16.83c-2.48-3.47-4.5-7.28-6.74-10.93
		c-0.26-0.42-0.56-0.89-0.97-1.14c-3.81-2.33-5.19-6.52-7.54-9.94c-2.11-3.07-3.44-6.8-5.92-9.48c-1.96-2.11-2.45-5.8-6.25-6.29
		c-0.94-0.12-1.52-2.02-2.55-2.52c-3.7-1.79-7.56-3.24-11.27-4.99c-3.93-1.86-7.8-3.86-11.65-5.89c-3.29-1.74-6.86-3.19-9.65-5.53
		C271,497.52,268.36,493.91,265.3,490.52z"/>
	<path class="st0" d="M409.23,515.44c4.1-1.62,8.06-3.13,11.98-4.72c2.59-1.05,5.19-2.09,7.67-3.35c1.62-0.82,2.92-2.3,4.56-3.01
		c2.68-1.17,5.51-2,8.3-2.87c0.79-0.25,1.69-0.14,2.54-0.2c1.68-0.13,3,0.18,3.33,2.22c0.09,0.59,0.74,1.09,1.09,1.57
		c-0.43,1.49-0.86,2.98-1.29,4.48c0.14,0.01,0.29,0.01,0.43,0.02c-1.09,1.19-2.09,2.47-3.29,3.53c-0.99,0.87-2.15,1.62-3.36,2.14
		c-5.44,2.35-10.93,4.58-16.39,6.88c-3.97,1.67-7.93,3.39-11.91,5.04c-4.36,1.8-8.69,3.7-13.15,5.25c-3.4,1.18-6.91,2.22-10.46,2.75
		c-6.12,0.91-12.3,1.44-18.47,1.99c-2.26,0.2-4.54,0.56-5.77-2.57c-0.37-0.94-3.3-0.92-5.07-1.24c-1.33-0.24-2.76-0.11-4.01-0.55
		c-0.8-0.28-1.35-1.3-2.01-1.99c0.65-0.6,1.19-1.54,1.95-1.76c5.53-1.64,11.04-3.5,16.69-4.58c5.15-0.98,10.46-1.25,15.71-1.48
		c6.86-0.3,12.78-2.92,18.4-6.57C407.4,515.94,408.28,515.8,409.23,515.44z"/>
	<path class="st0" d="M421.33,557.85c-1.81-1.21-3.48-2.1-5.59-0.32c-0.28-0.89-0.49-1.56-0.69-2.21c-1.14-0.17-2.41-0.08-3.37-0.58
		c-0.89-0.47-1.31-1.8-2.19-2.35c-1.24-0.77-1.82-1.4-0.76-2.75c2.23,1.33,4.18,2.61,6.28-0.3c0.83-1.15,2.72-1.79,4.25-2.15
		c3.71-0.88,6.53-3.12,8.69-5.95c5.09-6.66,12.08-8.52,19.9-8.68c0.85-0.02,1.7-0.04,2.55-0.05c0.08,0,0.16,0.06,0.3,0.11
		c0,0.51-0.21,1.37,0.03,1.53c2.6,1.65,1.16,3.35,0.03,4.88c-1.96,2.64-4.14,5.11-6.1,7.74c-0.82,1.09-1.21,2.5-2.01,3.61
		c-0.63,0.87-1.93,2.3-2.35,2.12c-2.67-1.15-4.27,1.16-6.38,1.67c-3.71,0.89-7.35,2.02-11.02,3.08
		C422.42,557.37,421.97,557.62,421.33,557.85z"/>
	<path class="st0" d="M604.16,373.84c4.54-6.15,8.9-12.23,13.49-18.12c1.2-1.54,3.46-2.31,3.3-4.75c-0.12-1.75-0.52-3.49-0.57-5.24
		c-0.06-1.89,0.05-3.79,0.24-5.68c0.26-2.56,0.65-5.11,1.03-7.97c1.79,1.89,2.3,4.3,2.61,6.6c0.48,3.51,0.33,7.1,0.81,10.6
		c0.51,3.7-1.29,6.07-3.72,8.41c-2.46,2.37-4.88,4.83-6.97,7.53c-2.59,3.33-4.79,6.95-7.22,10.41c-0.36,0.51-1.01,0.83-1.52,1.23
		c-0.23-0.64-0.45-1.28-0.69-1.97c-0.82,0.71-1.7,1.47-2.58,2.22c-0.15-0.12-0.3-0.25-0.46-0.37
		C602.63,375.82,603.34,374.91,604.16,373.84z"/>
	<path class="st0" d="M547.73,246.19c-0.08-4.39,0.46-6.94,2.52-9c0.07,2.17,0.46,4.4,0.12,6.51c-0.41,2.51,0.15,4.75,0.89,7.02
		c0.81,2.48,2.87,2.94,4.97,1.21c2.49-2.05,5-4.06,7.58-6.16c0.34,2.14-3.01,4.95,1.27,6.49c-1.66,2.28-2.41,4.79-5.56,5.66
		c-1.85,0.51-3.35,2.42-4.89,3.84c-1.48,1.35-2.62,0.85-3.63-0.45c-1.17-1.51-2.12-2.87-1.37-5.22c0.5-1.55-0.65-3.63-1.04-5.48
		C548.29,249.22,548.01,247.82,547.73,246.19z"/>
	<path class="st0" d="M577.46,233.88c0.87-3.63,3.02-1.46,4.79-1.23c0.53-0.9,1.06-1.81,1.6-2.72c0.26,0.1,0.53,0.19,0.79,0.29
		c-0.5,1.35-0.99,2.7-1.49,4.05c0.23,0.01,0.46,0.02,0.68,0.03c0,1.1,0.44,2.65-0.11,3.19c-0.63,0.62-2.49,0.83-3.19,0.33
		C579.27,236.91,578.49,235.36,577.46,233.88z"/>
	<path class="st0" d="M571.24,321.12c-0.96-1.02-1.77-1.95-2.68-3c2.3-1.52,4.16-0.4,5.46,0.8c0.94,0.87,1.02,2.68,1.49,4.08
		c-0.71,0.16-1.63,0.68-2.09,0.41C572.6,322.92,572.06,321.96,571.24,321.12z"/>
	<path class="st0" d="M549.44,506.83c-1.14-1.05-2.09-2.18-3.3-2.75c-1.67-0.78-1.98-1.81-1.57-3.41c4.06,0.9,7.94,6.96,6.95,11.6
		C550.7,510.12,550.11,508.56,549.44,506.83z"/>
	<path class="st0" d="M514.4,498.94c-0.72,1.26-1.42,2.32-2.08,3.33c-2.26-3.73-1.85-5.26,2.57-7.57
		C514.71,496.22,514.57,497.48,514.4,498.94z"/>
	<path class="st0" d="M569.12,238.66c-0.33,0.63-0.69,1.08-1.05,1.52c-0.22-0.1-0.43-0.2-0.65-0.3c0.1-1.04,0.34-2.1,0.25-3.12
		c-0.13-1.44-0.52-2.86-0.78-4.3c-0.1-0.53-0.41-1.38-0.21-1.53c0.48-0.36,1.28-0.65,1.82-0.5c0.43,0.12,0.95,0.94,0.94,1.44
		C569.41,234.08,569.22,236.27,569.12,238.66z"/>
	<path class="st0" d="M293.37,590.26c-0.33,1.72-0.75,3.3-1.18,4.89c-0.25,0.03-0.49,0.06-0.74,0.09c-0.6-2.11-1.21-4.22-1.81-6.33
		c0.26-0.17,0.51-0.34,0.77-0.51C291.36,588.97,292.31,589.55,293.37,590.26z"/>
	<path class="st0" d="M475.15,213.66c0.44,2.54,0.85,4.88,1.26,7.21c-3.71-2.93-1.95-7.15-2.73-10.85
		C474.16,211.17,474.64,212.32,475.15,213.66z"/>
	<path class="st0" d="M192.61,343.59c0.73,0.59,1.31,1.11,1.96,1.71c-2.74,1.47-3.57,1.02-3.95-2.17
		C191.3,343.27,191.88,343.39,192.61,343.59z"/>
	<path class="st0" d="M841.94,62.04c-0.1,0.66-0.08,1.27-0.38,1.58c-0.42,0.43-1.07,0.63-1.62,0.93c-0.21-0.4-0.7-0.89-0.6-1.18
		c0.32-0.91,0.86-1.73,1.31-2.59C841.08,61.14,841.5,61.5,841.94,62.04z"/>
	<path class="st0" d="M522.56,602.21c0.87-0.26,1.65-0.39,2.43-0.53c0.08,0.54,0.4,1.4,0.19,1.56c-0.61,0.47-1.44,0.65-2.18,0.95
		C522.82,603.57,522.64,602.96,522.56,602.21z"/>
	<path class="st0" d="M629.1,446.93c-0.29,0.74-0.57,1.3-0.84,1.86c-0.23-0.04-0.46-0.08-0.69-0.11c-0.06-1.27-0.13-2.55-0.19-3.82
		c0.29-0.06,0.59-0.12,0.88-0.18C628.54,445.36,628.83,446.05,629.1,446.93z"/>
</g>
</svg>
