<?xml version="1.0" standalone="no"?>
<!DOCTYPE svg PUBLIC "-//W3C//DTD SVG 20010904//EN"
 "http://www.w3.org/TR/2001/REC-SVG-20010904/DTD/svg10.dtd">
<svg version="1.0" xmlns="http://www.w3.org/2000/svg"
 width="442.000000pt" height="680.000000pt" viewBox="0 0 442.000000 680.000000"
 preserveAspectRatio="xMidYMid meet">
<metadata>
Created by potrace 1.16, written by Peter Selinger 2001-2019
</metadata>
<g transform="translate(0.000000,680.000000) scale(0.100000,-0.100000)"
fill="#000000" stroke="none">
<path d="M1810 6787 c-61 -17 -370 -186 -370 -202 0 -37 52 -20 195 65 48 28
115 60 149 71 59 19 74 20 232 11 93 -5 173 -7 177 -5 19 11 -29 43 -77 52
-90 17 -257 21 -306 8z"/>
<path d="M2212 6611 c-25 -16 14 -34 60 -28 68 9 290 -54 421 -119 123 -62
147 -82 147 -123 0 -41 -13 -45 -57 -22 -71 38 -106 51 -135 51 -51 0 -32 -40
26 -54 39 -10 86 -58 86 -90 0 -15 14 -41 34 -63 45 -51 72 -106 86 -180 19
-94 8 -94 -37 -2 -44 91 -136 209 -186 240 -59 35 -100 22 -230 -80 -75 -58
-80 -60 -102 -45 -13 8 -50 18 -82 21 -43 4 -65 12 -85 30 -31 29 -62 27 -66
-4 -5 -32 64 -79 131 -89 l52 -8 -90 -22 c-113 -28 -136 -29 -184 -4 -72 36
-131 131 -190 302 -58 169 -92 228 -133 228 -19 0 -86 -85 -148 -190 -46 -77
-107 -141 -118 -123 -10 17 -100 33 -176 33 -138 -1 -296 -49 -304 -93 -5 -22
20 -22 89 1 30 11 66 22 82 26 26 6 27 5 27 -37 0 -77 -16 -103 -90 -151 -77
-50 -106 -91 -145 -207 -15 -42 -38 -86 -54 -104 -38 -39 -66 -175 -58 -280
11 -135 82 -286 150 -318 31 -14 37 -22 37 -48 0 -16 -7 -43 -15 -59 -11 -21
-12 -35 -5 -47 5 -10 16 -45 24 -78 12 -51 12 -63 1 -81 -26 -41 -255 -205
-340 -245 -80 -37 -84 -40 -90 -76 -3 -21 -21 -86 -40 -145 -35 -107 -43 -170
-25 -198 16 -26 36 8 55 93 9 42 27 107 39 144 21 63 25 68 63 80 25 9 74 45
129 95 94 86 182 148 304 217 81 46 92 57 85 82 -7 23 23 56 67 74 35 14 38
14 52 -7 25 -36 19 -67 -19 -102 -37 -34 -46 -72 -19 -83 10 -4 30 9 57 34 59
57 188 146 197 136 4 -4 20 -29 34 -55 l27 -47 -35 -15 c-28 -11 -36 -21 -36
-40 0 -22 5 -25 55 -31 32 -4 67 -3 86 4 18 6 33 11 34 11 2 0 8 -22 15 -49 9
-38 9 -54 0 -72 -23 -41 -6 -97 44 -148 70 -72 127 -186 137 -277 5 -43 19
-99 34 -131 14 -31 23 -59 20 -62 -12 -12 -40 17 -43 45 -4 44 -61 212 -93
274 -39 79 -95 140 -126 140 -23 0 -25 -3 -20 -28 5 -26 2 -29 -36 -43 -46
-16 -54 -33 -56 -111 -1 -50 -21 -69 -21 -20 0 36 -13 55 -36 50 -17 -3 -19
-12 -16 -70 3 -48 -1 -77 -14 -104 l-18 -37 -11 40 c-13 44 -60 116 -95 148
-12 11 -26 30 -31 43 -18 47 -75 16 -67 -38 4 -25 -6 -41 -69 -110 -72 -80
-85 -107 -60 -128 10 -9 33 9 101 75 l88 87 19 -25 c50 -64 72 -226 52 -387
l-6 -54 -59 112 c-51 94 -63 111 -82 108 -17 -2 -21 -9 -20 -35 2 -29 -9 -42
-95 -121 l-97 -90 7 67 c4 36 19 102 33 146 14 44 31 120 37 168 10 76 15 91
37 105 38 26 72 60 72 72 0 17 -43 11 -75 -10 -41 -27 -58 -26 -53 4 7 36 -7
54 -29 40 -15 -10 -18 -26 -18 -91 0 -89 -9 -108 -57 -118 -47 -11 -115 -82
-123 -130 -3 -22 -10 -48 -16 -57 -5 -10 -9 -36 -9 -58 0 -33 3 -40 19 -40 11
0 26 8 33 18 14 18 88 25 88 7 0 -11 -28 -220 -37 -273 -3 -18 1 -60 8 -93
l13 -59 21 63 c30 95 80 169 180 269 l90 89 22 -27 c12 -15 29 -48 39 -73 10
-25 46 -102 80 -171 86 -172 108 -250 109 -375 0 -108 -7 -130 -79 -242 -33
-52 -33 -52 -51 -31 -17 21 -18 20 -50 -68 -17 -49 -44 -112 -58 -141 -61
-119 -180 -268 -240 -299 l-28 -15 26 50 c23 47 55 149 55 178 0 28 -22 10
-68 -52 l-47 -65 -7 32 c-4 18 -10 112 -13 208 -9 248 -22 385 -51 529 -29
147 -32 161 -44 161 -5 0 -13 -15 -19 -33 -12 -36 2 -161 33 -298 15 -68 22
-157 31 -408 5 -116 11 -169 26 -210 l19 -55 -47 -71 c-25 -38 -56 -95 -68
-125 -17 -44 -27 -57 -51 -64 -79 -25 -114 -45 -114 -65 0 -32 5 -32 120 9
121 42 148 40 210 -15 28 -25 55 -45 60 -45 5 0 21 11 36 24 l28 23 135 -64
c166 -78 263 -147 402 -284 114 -112 112 -108 137 -244 12 -59 99 -248 322
-700 54 -110 122 -251 151 -314 48 -106 51 -117 46 -172 -5 -63 2 -73 27 -37
9 12 17 20 19 17 16 -19 76 -142 86 -174 7 -22 15 -46 17 -54 4 -11 8 -10 24
4 25 22 25 41 1 129 -14 51 -28 77 -54 102 -50 49 -57 90 -40 226 22 172 97
483 148 616 25 64 66 147 90 183 25 36 50 80 56 98 6 17 20 36 30 42 38 20 15
123 -58 267 -35 69 -37 75 -23 100 8 15 51 51 95 80 44 29 93 65 110 81 47 45
228 127 353 161 62 16 117 30 123 30 21 0 127 -259 144 -355 7 -38 20 -97 29
-130 10 -35 16 -99 16 -157 0 -89 -3 -107 -39 -200 -44 -117 -182 -518 -236
-686 -46 -143 -137 -355 -175 -409 -37 -51 -40 -83 -7 -83 13 0 31 8 39 18 43
48 135 264 213 502 27 80 54 154 60 165 7 11 20 52 28 91 9 39 41 134 72 213
74 188 95 272 95 385 0 180 -57 433 -129 571 -17 34 -26 66 -26 99 0 75 -7 76
-195 22 -194 -55 -296 -103 -433 -203 -155 -113 -338 -218 -477 -273 l-50 -20
-45 34 c-57 44 -86 50 -220 48 -121 -1 -143 6 -170 57 l-15 30 28 -9 c15 -4
47 -17 72 -29 81 -37 117 -26 154 48 14 27 48 67 76 91 28 23 60 60 71 81 45
90 124 148 200 149 22 0 51 10 73 25 31 21 35 22 26 6 -15 -30 -70 -248 -70
-282 0 -24 4 -29 24 -29 20 0 24 6 30 41 6 37 54 197 93 308 22 61 67 108 116
123 51 14 87 44 87 73 0 34 -10 36 -55 10 -23 -14 -47 -25 -54 -25 -15 0 40
102 126 233 133 202 141 238 153 667 9 329 18 454 41 545 15 62 58 160 93 211
27 41 35 84 14 84 -18 0 -74 -54 -103 -98 -13 -21 -35 -77 -49 -127 -46 -161
-56 -264 -56 -590 0 -401 -11 -446 -152 -665 -34 -51 -84 -136 -111 -188 -30
-56 -58 -97 -71 -102 -11 -5 -67 -23 -123 -40 -71 -21 -107 -37 -118 -52 -39
-57 -6 -61 117 -14 88 33 110 32 101 -4 -4 -16 -8 -17 -24 -7 -15 9 -25 8 -51
-8 -18 -10 -55 -22 -82 -27 -82 -13 -135 -46 -194 -124 -195 -254 -225 -276
-337 -238 -68 24 -119 78 -135 144 -7 29 -23 69 -36 88 -13 19 -24 38 -24 41
0 3 -16 71 -36 151 l-37 145 -6 430 -6 430 -34 70 c-92 192 -103 219 -82 204
356 -249 414 -295 452 -356 12 -19 31 -38 42 -42 16 -6 25 -31 48 -142 27
-128 58 -447 55 -564 -1 -47 0 -50 26 -53 38 -4 41 15 29 188 -19 280 -88 700
-121 733 -16 18 -45 2 -45 -24 1 -24 -4 -22 -78 40 -73 61 -77 66 -53 69 20 3
26 9 26 27 0 13 -4 27 -10 30 -5 3 -28 36 -50 73 -23 37 -52 82 -65 101 -30
41 -32 56 -6 40 10 -7 26 -9 36 -5 15 5 17 14 12 51 -4 28 -1 59 9 87 8 23 17
76 21 116 l6 74 20 -58 c18 -55 25 -188 15 -274 -2 -19 2 -26 18 -28 18 -3 23
3 28 35 16 91 17 95 31 83 21 -17 35 -3 35 36 0 41 11 43 43 8 29 -31 70 -30
75 2 2 11 -11 54 -27 95 -16 41 -42 124 -57 184 -14 61 -40 139 -56 175 -68
148 -71 162 -16 83 18 -27 52 -68 75 -92 29 -29 47 -58 54 -88 7 -24 20 -50
31 -57 16 -12 18 -18 9 -34 -18 -34 -13 -53 18 -65 l28 -10 7 -120 7 -120 -30
-31 c-20 -21 -39 -63 -61 -130 -34 -110 -36 -149 -5 -154 16 -2 24 9 42 60 64
189 70 201 96 215 32 16 34 43 13 172 -8 47 -12 90 -9 96 3 8 43 12 128 11
l124 -1 63 63 c40 38 72 62 86 62 12 0 22 -1 22 -3 0 -2 -18 -56 -40 -122 -45
-133 -79 -284 -105 -457 -20 -127 -22 -114 30 -184 6 -9 3 -19 -9 -33 -31 -34
-142 -91 -176 -91 -20 0 -73 22 -139 57 -108 57 -141 63 -141 25 0 -27 22 -43
125 -95 50 -25 106 -59 124 -76 18 -17 39 -31 46 -31 8 0 33 22 56 50 23 28
62 59 88 71 104 49 126 102 71 166 -32 36 -37 65 -20 123 6 19 26 111 46 203
39 188 62 268 106 375 29 69 31 72 48 57 24 -22 48 -16 73 17 14 19 18 34 13
53 -6 25 -9 26 -24 13 -41 -36 -43 -26 -2 11 88 81 101 91 119 91 25 0 40 45
48 141 l6 76 81 -4 c193 -9 316 -33 429 -85 84 -39 117 -75 117 -129 0 -21 9
-53 20 -71 29 -48 25 -80 -30 -255 -58 -180 -104 -356 -120 -457 -9 -56 -8
-90 6 -180 21 -138 23 -335 5 -444 -12 -72 -15 -80 -27 -65 -9 13 -16 15 -24
7 -20 -20 -30 -85 -40 -274 -5 -102 -13 -215 -16 -252 l-7 -68 30 0 c37 0 43
20 43 150 0 90 16 328 25 366 3 12 13 24 24 27 33 8 49 58 61 187 13 130 9
211 -16 370 -23 140 -4 245 103 570 55 171 57 178 60 300 1 69 4 134 5 145 4
23 -53 63 -194 136 -54 27 -99 55 -99 62 -1 7 -1 51 1 98 1 67 -4 108 -24 180
-14 52 -37 136 -51 187 -14 51 -46 139 -72 195 -60 129 -62 172 -13 272 28 58
34 84 38 157 8 162 -53 283 -211 415 -104 88 -115 113 -104 258 2 30 2 30 -60
35 -50 4 -67 10 -90 32 -34 32 -127 72 -232 99 -77 20 -264 27 -289 10z m-428
-393 c26 -37 14 -185 -20 -250 -14 -28 -14 -28 15 -28 16 0 50 -14 77 -33 56
-38 235 -115 343 -147 65 -20 85 -22 165 -15 173 15 191 10 243 -67 28 -42 38
-49 123 -88 25 -11 68 -34 95 -50 30 -18 64 -30 86 -30 51 0 73 -24 102 -106
39 -109 51 -183 38 -231 -12 -42 -76 -139 -99 -148 -7 -2 -11 -1 -7 4 3 5 1
83 -4 172 -6 114 -6 170 2 186 10 22 5 30 -45 80 -55 54 -86 64 -75 22 3 -11
2 -19 -1 -19 -4 0 -38 28 -77 61 -82 71 -118 89 -178 89 -58 0 -169 -55 -225
-112 -23 -23 -45 -38 -49 -35 -4 4 -2 47 4 95 6 48 10 88 8 90 -12 13 -46 -25
-56 -60 -10 -39 -9 -66 7 -154 5 -28 3 -33 -27 -43 -37 -13 -67 1 -96 45 -14
23 -15 34 -5 101 13 81 11 93 -18 93 -24 0 -40 -29 -40 -72 0 -42 -20 -82 -44
-86 -10 -2 -32 6 -49 18 -42 32 -92 41 -162 30 -36 -6 -91 -6 -139 -1 -60 7
-86 6 -112 -5 -21 -9 -70 -14 -129 -14 -104 0 -140 -10 -192 -54 -40 -34 -42
-54 -5 -58 25 -3 28 -7 35 -63 8 -60 4 -171 -7 -182 -8 -9 -41 34 -76 100 -31
56 -32 62 -31 179 1 133 6 164 29 190 9 11 12 27 8 41 -14 57 134 346 237 464
43 49 147 95 147 64 0 -17 -116 -167 -210 -271 -91 -100 -160 -196 -160 -222
0 -30 15 -21 66 39 27 32 87 98 133 148 112 120 182 208 221 278 37 66 51 76
102 77 27 0 41 -6 52 -22z m-440 -1 l49 -12 -101 -57 c-56 -32 -105 -58 -111
-58 -15 0 -23 54 -12 82 22 59 66 70 175 45z m1316 -83 c28 -26 67 -74 88
-108 55 -87 104 -176 98 -176 -2 0 -19 26 -37 57 -18 32 -58 83 -88 113 l-56
55 -3 -33 c-3 -27 5 -44 40 -88 64 -81 78 -106 78 -137 0 -19 14 -43 43 -75
24 -26 54 -63 67 -82 13 -19 35 -47 48 -62 l26 -28 -38 0 c-28 0 -54 11 -97
39 -32 21 -81 44 -109 51 -43 10 -54 18 -65 44 -7 17 -25 60 -40 94 -15 35
-25 73 -22 83 7 25 -18 36 -39 18 -14 -12 -21 -8 -50 26 -19 22 -43 54 -53 71
l-19 31 99 49 c55 26 99 54 99 61 0 19 -48 16 -99 -7 -59 -27 -60 -26 -11 15
56 47 80 45 140 -11z m366 -76 c30 -32 67 -83 82 -115 22 -50 26 -72 27 -153
0 -69 -5 -108 -18 -142 -10 -27 -22 -48 -26 -48 -3 0 -12 29 -19 65 -12 63
-89 276 -130 360 -11 22 -23 60 -27 84 l-7 43 32 -18 c17 -11 56 -45 86 -76z
m-1732 -15 c-68 -115 -136 -263 -152 -328 -14 -58 -17 -65 -20 -38 -2 18 6 65
17 105 11 40 24 106 30 146 5 40 15 80 22 89 14 16 108 73 122 73 5 0 -4 -21
-19 -47z m1173 -161 c43 -62 40 -67 -46 -76 -53 -5 -187 6 -198 17 -3 3 27 45
67 92 l72 87 35 -34 c18 -18 50 -57 70 -86z m-407 69 c25 0 81 6 125 14 43 8
81 13 82 11 2 -2 -20 -29 -50 -60 -59 -63 -79 -68 -162 -40 -45 16 -125 82
-125 104 0 5 19 0 43 -10 23 -11 62 -20 87 -19z m-1001 -43 c-37 -71 -38 -75
-33 -153 2 -44 10 -110 16 -146 9 -55 8 -79 -6 -142 -13 -59 -15 -81 -6 -97
13 -24 4 -79 -10 -64 -17 19 -93 272 -97 329 -7 77 27 209 68 265 22 30 71 68
105 80 1 0 -16 -33 -37 -72z m-189 -319 c0 -15 12 -57 26 -95 14 -37 38 -122
55 -188 28 -114 28 -122 12 -134 -16 -11 -21 -10 -39 11 -33 38 -83 168 -93
242 -9 62 -3 142 15 197 5 16 8 18 15 7 5 -8 9 -26 9 -40z m1562 -117 c-3 -35
0 -42 39 -75 62 -53 121 -70 327 -90 27 -2 28 -21 3 -46 -27 -27 -118 -37
-208 -23 -125 20 -243 96 -243 156 0 24 29 67 65 98 11 10 20 17 20 18 0 0 -1
-17 -3 -38z m-985 -28 c24 -12 42 -32 60 -68 36 -74 96 -165 111 -171 8 -3 20
-2 28 3 11 6 5 21 -26 72 -22 35 -38 66 -35 68 2 2 38 -15 81 -38 111 -62 172
-60 262 7 23 18 32 32 32 54 0 26 3 29 34 29 48 0 76 -37 75 -99 0 -74 -19
-115 -53 -121 -27 -5 -32 -12 -53 -80 -12 -41 -23 -80 -23 -87 0 -19 34 -33
97 -41 l58 -7 -67 -47 c-36 -26 -76 -64 -89 -84 -12 -20 -37 -43 -56 -50 -49
-21 -44 -84 6 -84 34 0 47 11 104 86 54 72 91 105 164 146 52 29 61 45 47 82
-10 25 -42 19 -72 -15 l-28 -32 4 37 c3 29 -1 42 -17 57 -26 25 -27 48 -1 97
12 22 27 68 34 103 l13 63 78 13 c43 7 79 12 81 11 1 -2 -4 -35 -12 -73 -9
-40 -14 -104 -12 -147 3 -74 2 -78 -18 -78 -12 0 -28 -7 -35 -16 -21 -26 15
-46 76 -42 l50 3 -2 76 c-2 42 -6 87 -11 100 -9 25 5 89 20 89 5 0 26 -11 47
-25 21 -14 65 -31 98 -38 l61 -12 -30 -35 c-44 -51 -58 -91 -58 -164 0 -56 3
-67 21 -76 29 -16 33 -8 32 62 -2 73 10 100 71 156 48 44 60 49 149 55 66 4
94 24 123 88 16 36 19 39 25 20 8 -20 -2 -99 -20 -158 -5 -18 -7 -65 -4 -106
4 -56 1 -92 -16 -157 -16 -62 -23 -121 -25 -220 -3 -154 -15 -191 -66 -209
-17 -6 -48 -23 -68 -39 -20 -16 -46 -32 -58 -36 -12 -3 -35 -24 -53 -46 -23
-28 -40 -40 -58 -40 -18 0 -44 -17 -84 -55 -68 -65 -110 -85 -179 -85 -88 0
-149 37 -213 130 -17 25 -67 89 -111 143 -72 87 -84 98 -108 94 -21 -2 -28 1
-28 12 0 9 -14 27 -31 42 -27 22 -32 33 -40 100 -4 40 -8 77 -9 82 -1 20 -43
47 -73 47 -32 0 -34 3 -72 90 -25 57 -46 92 -58 96 -13 4 -39 -7 -78 -35 -87
-62 -107 -54 -99 35 l5 58 45 0 c60 1 67 28 12 44 -71 21 -77 36 -80 197 l-4
142 27 22 c33 25 56 26 102 5z m1722 -262 c35 -106 81 -282 81 -309 -1 -12 -8
-5 -20 18 -54 102 -70 9 -20 -116 17 -42 30 -78 30 -80 0 -15 -63 -1 -86 18
l-27 24 16 59 c8 32 18 79 22 104 4 25 11 61 17 81 8 29 7 46 -5 80 -9 24 -21
73 -27 109 -6 36 -14 76 -17 90 -12 50 6 13 36 -78z m-1938 -89 c49 -52 64
-103 32 -103 -33 0 -121 -48 -166 -89 -51 -47 -64 -50 -73 -17 -6 26 11 92 26
101 5 3 34 39 65 80 62 82 65 83 116 28z m1878 -133 c1 -111 -17 -188 -41
-182 -25 6 -69 57 -94 108 l-26 53 40 53 c21 29 47 59 56 67 9 8 24 31 33 50
l16 36 8 -40 c4 -22 8 -87 8 -145z m-1637 -2257 c4 -212 8 -250 31 -350 14
-62 36 -135 48 -163 19 -44 21 -60 14 -118 -5 -37 -11 -91 -14 -120 l-6 -52
-80 53 c-185 124 -344 200 -490 234 l-74 17 37 24 c57 38 82 63 117 117 18 28
69 86 114 130 69 67 84 88 101 141 12 34 43 94 70 133 27 39 63 98 81 131 17
33 35 60 39 60 5 0 10 -107 12 -237z m1082 -996 c22 -45 48 -101 58 -125 l18
-43 -55 -100 c-140 -253 -237 -529 -275 -779 -6 -41 -13 -90 -16 -108 -4 -29
-27 11 -203 368 -173 348 -287 597 -278 606 1 2 22 -10 46 -27 49 -32 61 -35
79 -17 18 18 15 46 -8 65 -11 10 -20 21 -20 25 0 15 64 37 175 62 117 25 274
80 365 127 30 15 60 28 65 28 6 0 28 -37 49 -82z m-632 28 c146 0 169 -2 185
-17 16 -17 15 -18 -30 -18 -61 0 -151 -32 -198 -69 l-36 -30 -66 67 c-71 72
-81 88 -44 76 12 -5 97 -8 189 -9z"/>
<path d="M1524 5882 c-76 -50 -117 -97 -143 -167 -23 -60 -33 -167 -16 -175
15 -8 52 55 75 132 19 63 29 78 91 139 41 40 69 76 69 88 0 29 -8 27 -76 -17z"/>
<path d="M1750 5685 c-8 -9 -30 -15 -59 -15 -52 -1 -74 -11 -125 -58 -68 -62
-27 -88 46 -29 37 30 45 32 105 29 48 -2 70 2 83 13 15 14 18 13 35 -5 25 -27
45 -25 45 4 0 52 -99 99 -130 61z"/>
<path d="M2221 4897 c-8 -10 3 -28 49 -78 33 -35 60 -68 60 -73 0 -5 -24 -6
-52 -2 -29 3 -63 6 -75 6 -15 0 -20 5 -16 18 9 35 -17 42 -89 27 -86 -18 -107
-30 -114 -63 -4 -21 -19 -34 -67 -57 -51 -25 -63 -35 -65 -57 -3 -24 5 -33 59
-68 34 -22 77 -42 96 -46 58 -11 254 2 302 20 24 9 46 14 49 12 9 -10 -49 -96
-89 -130 -27 -23 -39 -40 -36 -51 8 -20 29 -19 69 5 62 36 108 117 138 242 28
116 27 129 -8 122 -26 -5 -30 -2 -46 40 -23 59 -100 146 -131 146 -12 0 -27
-6 -34 -13z"/>
<path d="M296 4233 c-9 -27 -23 -101 -29 -165 -13 -132 -13 -132 -85 -102 -42
17 -93 12 -113 -12 -10 -12 -9 -22 5 -51 21 -43 13 -93 -14 -93 -27 0 -37 -19
-50 -100 -11 -65 -11 -80 3 -112 9 -20 21 -90 27 -155 7 -65 20 -154 31 -198
10 -45 19 -110 19 -145 0 -36 5 -83 11 -105 6 -22 14 -106 17 -186 8 -159 1
-140 87 -257 13 -19 27 -54 31 -80 4 -25 15 -64 25 -86 9 -23 23 -86 29 -141
16 -136 28 -183 53 -197 17 -9 23 -6 40 16 15 20 27 26 58 26 42 0 103 25 95
39 -10 16 -122 32 -149 22 -15 -6 -28 -7 -31 -3 -2 4 -14 71 -25 148 -12 77
-26 156 -31 174 -9 33 -8 32 45 -23 29 -31 60 -57 69 -57 8 0 21 -3 30 -6 12
-5 16 0 16 17 0 15 -29 49 -94 110 -51 49 -98 101 -104 116 -6 15 -16 61 -22
101 -5 39 -22 102 -36 140 -33 88 -40 124 -59 278 -16 135 -20 621 -7 699 l7
40 65 3 c86 3 114 -12 118 -61 5 -57 42 -45 42 13 0 30 29 38 103 29 94 -12
247 -15 275 -5 57 19 6 35 -204 66 -75 11 -138 21 -140 23 -2 1 1 20 6 42 8
37 31 66 63 79 14 5 -27 46 -47 46 -28 0 -56 -32 -56 -64 0 -38 -18 -96 -30
-96 -23 0 -28 134 -9 218 11 48 6 102 -9 102 -4 0 -16 -21 -26 -47z"/>
<path d="M1850 3666 c-9 -12 -10 -39 -5 -106 6 -80 10 -92 32 -110 30 -23 62
-26 88 -6 18 13 18 16 -17 54 -23 25 -39 56 -43 79 -17 99 -29 119 -55 89z"/>
<path d="M282 3609 c-27 -83 -39 -292 -20 -329 8 -14 22 -25 32 -25 16 0 18
15 21 196 2 108 0 201 -5 209 -5 8 -15 -10 -28 -51z"/>
<path d="M722 3518 c-5 -7 -22 -66 -36 -131 -23 -101 -26 -137 -24 -250 3
-123 1 -135 -20 -169 -14 -22 -22 -51 -22 -75 0 -21 -2 -67 -5 -103 -3 -36 -2
-92 2 -125 7 -51 11 -60 28 -60 19 0 20 9 26 140 6 127 9 147 35 200 27 58 28
65 26 200 -2 90 3 170 13 225 19 109 19 160 1 160 -7 0 -18 -6 -24 -12z"/>
<path d="M537 1892 c-29 -32 -21 -99 22 -188 21 -43 53 -96 70 -118 17 -21 31
-45 31 -52 0 -7 22 -42 49 -77 75 -98 191 -269 191 -282 0 -6 14 -33 32 -61
17 -27 57 -96 89 -154 104 -193 149 -271 203 -349 29 -43 58 -97 64 -122 14
-51 26 -68 65 -94 20 -13 31 -15 39 -7 12 12 -115 256 -229 440 -35 57 -86
148 -113 202 -70 140 -129 236 -224 369 -157 218 -246 384 -246 460 0 40 -22
57 -43 33z"/>
<path d="M3885 1308 c-49 -23 -93 -46 -97 -52 -29 -42 28 -48 102 -11 55 28
90 32 90 11 0 -7 3 -28 6 -45 6 -28 4 -32 -30 -46 -20 -8 -36 -18 -36 -20 0
-3 20 -47 44 -98 24 -51 47 -102 51 -114 4 -16 14 -23 30 -23 29 0 39 27 25
64 -5 15 -10 43 -10 62 0 35 0 35 38 28 65 -12 74 -20 67 -65 -6 -32 -4 -39
10 -39 29 0 55 20 75 59 10 22 51 67 89 101 65 58 91 93 77 107 -9 9 -113 -58
-152 -98 l-35 -36 -82 25 c-45 13 -88 29 -94 34 -8 7 -13 37 -13 85 0 84 -11
113 -43 113 -12 0 -62 -19 -112 -42z"/>
<path d="M2080 80 c-14 -4 -63 -8 -110 -9 -47 -1 -109 -4 -138 -8 -50 -6 -53
-7 -50 -32 l3 -26 135 3 c147 3 210 14 235 43 31 34 -10 50 -75 29z"/>
</g>
</svg>
